<?xml version="1.0" standalone="no"?><!DOCTYPE svg PUBLIC "-//W3C//DTD SVG 1.1//EN"
        "http://www.w3.org/Graphics/SVG/1.1/DTD/svg11.dtd">
<svg t="1560262553924" class="icon" style="" viewBox="0 0 1024 1024" version="1.1" xmlns="http://www.w3.org/2000/svg"
     p-id="11033" width="48" height="48">
    <defs>
        <style type="text/css"></style>
    </defs>
    <path d="M749.580488 630.641097c-4.552689 4.552689-11.401678 7.407714-18.229177 7.407714-3.414773 0-6.829546-0.559748-10.263761-1.697665-2.834558-1.157359-5.690606-3.433192-7.966439-5.710049L510.275217 446.23825l-203.402573 184.401824c-2.276856 2.276856-5.131881 4.552689-7.987928 5.710049-2.835581 1.137916-6.268774 1.697665-9.683547 1.697665-7.40669 0-13.676487-2.855024-18.2302-7.407714l0 0c-4.552689-4.551666-7.966439-10.803044-7.966439-18.210757 0-3.412726 1.137916-6.828522 2.276856-9.66308 1.136893-3.415796 2.835581-6.27082 5.690606-8.547677l0 0 221.074048-200.913892c2.276856-2.276856 5.132904-3.984754 7.966439-5.691629 3.433192-1.137916 6.848988-1.706875 10.262738-1.706875 3.433192 0 6.830569 0.568958 9.68457 1.706875 3.433192 1.706875 5.709025 3.414773 8.565073 5.691629l221.055628 200.913892 0 0c2.295276 2.276856 3.992941 5.131881 5.691629 8.547677 1.157359 2.835581 1.717108 6.250354 1.717108 9.66308l0 0C756.988202 619.838054 754.152621 626.088408 749.580488 630.641097L749.580488 630.641097z"
          p-id="11034"></path>
</svg>